<svg xmlns="http://www.w3.org/2000/svg" width="35" height="32" viewBox="0 0 35 32">
  <g fill="#FFF">
    <path d="M26.9791667,24.7272727 C26.5766667,24.7272727 26.25,24.4014545 26.25,24 C26.25,23.5985455 26.5766667,23.2727273 26.9791667,23.2727273 C30.5972917,23.2727273 33.5416667,20.336 33.5416667,16.7272727 C33.5416667,13.1185455 30.5972917,10.1818182 26.9791667,10.1818182 C26.6422917,10.1745455 26.1960417,9.93163636 26.1435417,9.568 C25.4829167,4.94254545 21.4535417,1.45454545 16.7708333,1.45454545 C11.5441667,1.45454545 7.29166667,5.696 7.29166667,10.9090909 C7.29166667,11.3192727 7.32666667,11.7527273 7.4025,12.272 C7.433125,12.4829091 7.36895833,12.6967273 7.2275,12.8567273 C7.08604167,13.0167273 6.87166667,13.0836364 6.6675,13.1025455 C6.63541667,13.1025455 6.545,13.0938182 6.51291667,13.088 C3.74791667,13.0909091 1.45833333,15.3745455 1.45833333,18.1818182 C1.45833333,20.9890909 3.74791667,23.2727273 6.5625,23.2727273 C6.965,23.2727273 7.29166667,23.5985455 7.29166667,24 C7.29166667,24.4014545 6.965,24.7272727 6.5625,24.7272727 C2.944375,24.7272727 0,21.7905455 0,18.1818182 C0,14.8072727 2.57395833,12.0218182 5.86541667,11.6727273 C5.84354167,11.4065455 5.83333333,11.1549091 5.83333333,10.9090909 C5.83333333,4.89309091 10.7391667,0 16.7708333,0 C21.9683333,0 26.4702083,3.72509091 27.48375,8.76072727 C31.7304167,9.06472727 35,12.5221818 35,16.7272727 C35,21.1389091 31.4008333,24.7272727 26.9791667,24.7272727 Z"/>
    <g transform="translate(8.75 16)">
      <path d="M8.02083333,16 C3.59916667,16 0,12.4116364 0,8 C0,3.58836364 3.59916667,0 8.02083333,0 C12.4425,0 16.0416667,3.58836364 16.0416667,8 C16.0416667,12.4116364 12.4425,16 8.02083333,16 Z M8.02083333,1.45454545 C4.40270833,1.45454545 1.45833333,4.39127273 1.45833333,8 C1.45833333,11.6087273 4.40270833,14.5454545 8.02083333,14.5454545 C11.6389583,14.5454545 14.5833333,11.6087273 14.5833333,8 C14.5833333,4.39127273 11.6389583,1.45454545 8.02083333,1.45454545 Z"/>
      <path d="M6.5625,11.6363636 C6.37583333,11.6363636 6.18916667,11.5650909 6.04625,11.424 L3.12958333,8.51490909 C2.84520833,8.23127273 2.84520833,7.77018182 3.12958333,7.48654545 C3.41395833,7.20290909 3.87625,7.20290909 4.160625,7.48654545 L6.56104167,9.88072727 L11.878125,4.57745455 C12.1625,4.29381818 12.6247917,4.29381818 12.9091667,4.57745455 C13.1935417,4.86109091 13.1935417,5.32218182 12.9091667,5.60581818 L7.07583333,11.424 C6.93583333,11.5650909 6.74916667,11.6363636 6.5625,11.6363636 Z"/>
    </g>
  </g>
</svg>
