<svg xmlns="http://www.w3.org/2000/svg" width="26" height="35" viewBox="0 0 26 35">
  <path fill="#F9D045" d="M17.0848889,15.990625 C17.1628889,16.0197917 17.2452222,16.0416667 17.3333333,16.0416667 C20.6512222,16.0416667 25.2777778,11.8810417 25.2777778,5.10416667 C25.2777778,4.70166667 24.9542222,4.375 24.5555556,4.375 L20.7552222,4.375 C20.8462222,3.451875 20.904,2.47916667 20.9227778,1.45833333 L21.6666667,1.45833333 C22.0653333,1.45833333 22.3888889,1.13166667 22.3888889,0.729166667 C22.3888889,0.326666667 22.0653333,0 21.6666667,0 L4.33333333,0 C3.93466667,0 3.61111111,0.326666667 3.61111111,0.729166667 C3.61111111,1.13166667 3.93466667,1.45833333 4.33333333,1.45833333 L5.07722222,1.45833333 C5.096,2.47916667 5.15377778,3.451875 5.24477778,4.375 L1.44444444,4.375 C1.04577778,4.375 0.722222222,4.70166667 0.722222222,5.10416667 C0.722222222,11.8810417 5.34877778,16.0416667 8.66666667,16.0416667 C8.75477778,16.0416667 8.83711111,16.0197917 8.91511111,15.990625 C9.74711111,17.329375 10.4736667,18.160625 10.8333333,18.5325 L10.8333333,20.5508333 C9.99411111,20.8527083 9.38888889,21.6547917 9.38888889,22.6041667 L9.38888889,23.3333333 L5.77777778,23.3333333 C5.37911111,23.3333333 5.05555556,23.66 5.05555556,24.0625 C5.05555556,24.465 5.37911111,24.7916667 5.77777778,24.7916667 L6.5,24.7916667 L6.5,33.5416667 L5.77777778,33.5416667 C5.37911111,33.5416667 5.05555556,33.8683333 5.05555556,34.2708333 C5.05555556,34.6733333 5.37911111,35 5.77777778,35 L20.2222222,35 C20.6208889,35 20.9444444,34.6733333 20.9444444,34.2708333 C20.9444444,33.8683333 20.6208889,33.5416667 20.2222222,33.5416667 L19.5,33.5416667 L19.5,24.7916667 L20.2222222,24.7916667 C20.6208889,24.7916667 20.9444444,24.465 20.9444444,24.0625 C20.9444444,23.66 20.6208889,23.3333333 20.2222222,23.3333333 L16.6111111,23.3333333 L16.6111111,22.6041667 C16.6111111,21.6547917 16.0058889,20.8527083 15.1666667,20.5508333 L15.1666667,18.5325 C15.5263333,18.160625 16.2543333,17.329375 17.0848889,15.990625 Z M20.5804444,5.83333333 L23.8145556,5.83333333 C23.5328889,11.1810417 20.1991111,14.0758333 17.9197778,14.51625 C18.9872222,12.446875 20.0445556,9.57541667 20.5804444,5.83333333 Z M2.18544444,5.83333333 L5.41955556,5.83333333 C5.95544444,9.576875 7.01277778,12.4483333 8.08022222,14.51625 C5.80088889,14.0758333 2.46566667,11.1810417 2.18544444,5.83333333 Z M8.07011111,3.70854167 C8.03544444,3.3075 8.33011111,2.953125 8.72588889,2.918125 C9.13322222,2.86708333 9.47411111,3.17916667 9.50877778,3.58166667 C10.0634444,9.975 12.4164444,13.5989583 13.403,14.8589583 C13.65,15.1754167 13.5965556,15.6333333 13.2831111,15.8841667 C13.1502222,15.9891667 12.9927778,16.0402083 12.8353333,16.0402083 C12.623,16.0402083 12.4106667,15.9454167 12.2676667,15.763125 C10.9445556,14.07 8.63633333,10.2520833 8.07011111,3.70854167 Z M15.8888889,26.25 C16.2875556,26.25 16.6111111,26.5766667 16.6111111,26.9791667 L16.6111111,29.8958333 C16.6111111,30.2983333 16.2875556,30.625 15.8888889,30.625 L10.1111111,30.625 C9.71244444,30.625 9.38888889,30.2983333 9.38888889,29.8958333 L9.38888889,26.9791667 C9.38888889,26.5766667 9.71244444,26.25 10.1111111,26.25 L15.8888889,26.25 Z"/>
</svg>
