<svg xmlns="http://www.w3.org/2000/svg" width="32" height="32" viewBox="0 0 32 32">
  <g fill="#FFF">
    <path d="M16,32 C7.17773913,32 0,24.8222609 0,16 C0,7.17773913 7.17773913,0 16,0 C24.8222609,0 32,7.17773913 32,16 C32,24.8222609 24.8222609,32 16,32 Z M16,1.39130435 C7.94434783,1.39130435 1.39130435,7.94434783 1.39130435,16 C1.39130435,24.0556522 7.94434783,30.6086957 16,30.6086957 C24.0556522,30.6086957 30.6086957,24.0556522 30.6086957,16 C30.6086957,7.94434783 24.0556522,1.39130435 16,1.39130435 Z"/>
    <path d="M22.2608696,22.9565217 C22.0827826,22.9565217 21.9046957,22.8883478 21.7683478,22.7533913 L9.2466087,10.2316522 C8.97530435,9.96034783 8.97530435,9.51930435 9.2466087,9.248 C9.51791304,8.97669565 9.95895652,8.97669565 10.2302609,9.248 L22.752,21.7697391 C23.0233043,22.0410435 23.0233043,22.482087 22.752,22.7533913 C22.6170435,22.8883478 22.4389565,22.9565217 22.2608696,22.9565217 Z"/>
    <path d="M9.73913043,22.9565217 C9.56104348,22.9565217 9.38295652,22.8883478 9.2466087,22.7533913 C8.97530435,22.482087 8.97530435,22.0410435 9.2466087,21.7697391 L21.7683478,9.248 C22.0396522,8.97669565 22.4806957,8.97669565 22.752,9.248 C23.0233043,9.51930435 23.0233043,9.96034783 22.752,10.2316522 L10.2302609,22.7533913 C10.0953043,22.8883478 9.91721739,22.9565217 9.73913043,22.9565217 Z"/>
  </g>
</svg>
