<svg xmlns="http://www.w3.org/2000/svg" width="35" height="32" viewBox="0 0 35 32">
  <g fill="#FFF">
    <path d="M26.9791667,24.7272727 C26.5766667,24.7272727 26.25,24.4014545 26.25,24 C26.25,23.5985455 26.5766667,23.2727273 26.9791667,23.2727273 C30.5972917,23.2727273 33.5416667,20.336 33.5416667,16.7272727 C33.5416667,13.1185455 30.5972917,10.1818182 26.9791667,10.1818182 C26.5941667,10.1425455 26.1945833,9.93309091 26.1435417,9.568 C25.4829167,4.94254545 21.4535417,1.45454545 16.7708333,1.45454545 C11.5441667,1.45454545 7.29166667,5.696 7.29166667,10.9090909 C7.29166667,11.3163636 7.32666667,11.7498182 7.4025,12.2734545 C7.433125,12.4843636 7.36895833,12.6981818 7.2275,12.8581818 C7.08458333,13.0167273 6.85416667,13.0836364 6.6675,13.1025455 C6.63541667,13.1025455 6.54645833,13.0938182 6.514375,13.088 C3.74791667,13.0909091 1.45833333,15.3745455 1.45833333,18.1818182 C1.45833333,20.9890909 3.74791667,23.2727273 6.5625,23.2727273 C6.965,23.2727273 7.29166667,23.5985455 7.29166667,24 C7.29166667,24.4014545 6.965,24.7272727 6.5625,24.7272727 C2.944375,24.7272727 0,21.7905455 0,18.1818182 C0,14.8072727 2.57395833,12.0218182 5.86541667,11.6727273 C5.84354167,11.4065455 5.83333333,11.1549091 5.83333333,10.9090909 C5.83333333,4.89309091 10.7391667,0 16.7708333,0 C21.9697917,0 26.4702083,3.72509091 27.48375,8.76072727 C31.7304167,9.06472727 35,12.5221818 35,16.7272727 C35,21.1389091 31.4022917,24.7272727 26.9791667,24.7272727 Z"/>
    <path d="M16.7708333,32 C12.3477083,32 8.75,28.4116364 8.75,24 C8.75,19.5883636 12.3477083,16 16.7708333,16 C21.1939583,16 24.7916667,19.5883636 24.7916667,24 C24.7916667,28.4116364 21.1939583,32 16.7708333,32 Z M16.7708333,17.4545455 C13.1527083,17.4545455 10.2083333,20.3912727 10.2083333,24 C10.2083333,27.6087273 13.1527083,30.5454545 16.7708333,30.5454545 C20.3889583,30.5454545 23.3333333,27.6087273 23.3333333,24 C23.3333333,20.3912727 20.3889583,17.4545455 16.7708333,17.4545455 Z"/>
    <path d="M19.6875,27.6363636 C19.5008333,27.6363636 19.3141667,27.5650909 19.17125,27.424 L13.3379167,21.6058182 C13.0535417,21.3221818 13.0535417,20.8610909 13.3379167,20.5774545 C13.6222917,20.2938182 14.0845833,20.2938182 14.3689583,20.5774545 L20.2022917,26.3956364 C20.4866667,26.6792727 20.4866667,27.1403636 20.2022917,27.424 C20.0608333,27.5650909 19.8741667,27.6363636 19.6875,27.6363636 Z"/>
    <path d="M13.8541667,27.6363636 C13.6675,27.6363636 13.4808333,27.5650909 13.3379167,27.424 C13.0535417,27.1403636 13.0535417,26.6792727 13.3379167,26.3956364 L19.17125,20.5774545 C19.455625,20.2938182 19.9179167,20.2938182 20.2022917,20.5774545 C20.4866667,20.8610909 20.4866667,21.3221818 20.2022917,21.6058182 L14.3689583,27.424 C14.2275,27.5650909 14.0408333,27.6363636 13.8541667,27.6363636 Z"/>
  </g>
</svg>
