<svg xmlns="http://www.w3.org/2000/svg" width="40" height="32" viewBox="0 0 40 32">
  <g fill="#276EF1">
    <path d="M25.3333333,21.3333333 C25.2,21.3333333 25.0666667,21.3333333 24.9333333,21.2 L19.6,17.2 C19.4666667,17.0666667 19.3333333,16.9333333 19.3333333,16.6666667 L19.3333333,4.66666667 C19.3333333,4.26666667 19.6,4 20,4 C20.4,4 20.6666667,4.26666667 20.6666667,4.66666667 L20.6666667,16.4 L25.7333333,20.1333333 C26,20.4 26.1333333,20.8 25.8666667,21.0666667 C25.7333333,21.2 25.6,21.3333333 25.3333333,21.3333333 Z"/>
    <g transform="translate(4)">
      <path d="M16 32C9.33333333 32 3.33333333 27.7333333 1.06666667 21.4666667.933333333 21.0666667 1.06666667 20.8 1.46666667 20.6666667 1.86666667 20.5333333 2.13333333 20.6666667 2.26666667 21.0666667 4.4 26.8 9.86666667 30.6666667 16 30.6666667 24 30.6666667 30.6666667 24.1333333 30.6666667 16 30.6666667 15.6 30.9333333 15.3333333 31.3333333 15.3333333 31.7333333 15.3333333 32 15.6 32 16 32 24.8 24.8 32 16 32zM.666666667 16.6666667C.4 16.6666667 0 16.4 0 16 0 7.2 7.2 0 16 0 22.6666667 0 28.6666667 4.26666667 30.9333333 10.5333333 31.0666667 10.9333333 30.9333333 11.2 30.5333333 11.3333333 30.1333333 11.4666667 29.8666667 11.3333333 29.7333333 10.9333333 27.6 5.2 22.1333333 1.33333333 16 1.33333333 8 1.33333333 1.33333333 7.86666667 1.33333333 16 1.33333333 16.4 1.06666667 16.6666667.666666667 16.6666667z"/>
    </g>
    <path d="M4.66666667 18C4.53333333 18 4.26666667 18 4.13333333 17.8666667L.8 14.5333333C.533333333 14.2666667.533333333 13.8666667.8 13.6 1.06666667 13.3333333 1.46666667 13.3333333 1.73333333 13.6L4.53333333 16.4 7.33333333 13.6C7.6 13.3333333 8 13.3333333 8.26666667 13.6 8.53333333 13.8666667 8.53333333 14.2666667 8.26666667 14.5333333L4.93333333 17.8666667C5.06666667 18 4.8 18 4.66666667 18zM38.6666667 18.6666667C38.5333333 18.6666667 38.2666667 18.6666667 38.1333333 18.5333333L35.3333333 15.7333333 32.5333333 18.5333333C32.2666667 18.8 31.8666667 18.8 31.6 18.5333333 31.3333333 18.2666667 31.3333333 17.8666667 31.6 17.6L34.9333333 14.2666667C35.2 14 35.6 14 35.8666667 14.2666667L39.2 17.6C39.4666667 17.8666667 39.4666667 18.2666667 39.2 18.5333333 39.0666667 18.6666667 38.8 18.6666667 38.6666667 18.6666667z"/>
  </g>
</svg>
