<svg xmlns="http://www.w3.org/2000/svg" width="50" height="50" viewBox="0 0 50 50">
  <g fill="none" fill-rule="evenodd">
    <circle cx="25" cy="25" r="25" fill="#FFB000"/>
    <path fill="#FFF" fill-rule="nonzero" d="M23.2301587,30.1536098 L20.1517857,22.0201229 C20.0823413,21.8354071 19.9117063,21.7096006 19.7172619,21.699616 C19.5119048,21.6796467 19.3382937,21.79447 19.2480159,21.9682028 C18.9365079,22.5732719 18.5694444,22.984639 18.093254,23.2612135 C17.3819444,23.675576 16.343254,23.6336406 15.4930556,23.4938556 C15.3075397,23.4639017 15.1041667,23.4309524 14.9563492,23.4189708 C14.8293651,23.4089862 14.7083333,23.4449309 14.610119,23.5228111 C14.5069444,23.6026882 14.3690476,23.7235023 14.2688492,23.8123656 C13.7857143,24.2367127 13.0535714,24.8767281 12.0654762,24.9456221 C12.0287698,24.9486175 11.9970238,24.9675883 11.9623016,24.977573 C11.9384921,24.9735791 11.9166667,24.9605991 11.8918651,24.9605991 C10.8224206,24.9605991 10.0664683,24.297619 9.51488095,23.8133641 C9.40873016,23.7205069 9.26190476,23.5917051 9.1577381,23.5108295 C9.04265873,23.4199693 8.89285714,23.38702 8.75198413,23.4159754 C8.66666667,23.4339478 8.49305556,23.4619048 8.27678571,23.496851 C7.92757937,23.5547619 7.5327381,23.6186636 7.12599206,23.6186636 C6.58035714,23.6186636 6.09722222,23.4988479 5.68948413,23.2602151 C5.36210317,23.0715054 5.08333333,22.8079109 4.8343254,22.4564516 C4.73115079,22.3106759 4.55654762,22.2387865 4.38194444,22.2487711 C4.20535714,22.2667435 4.0515873,22.377573 3.9781746,22.541321 L0.526785714,30.2474654 C0.44047619,30.4391705 0.484126984,30.6658218 0.635912698,30.8115975 C0.73015873,30.9034562 0.854166667,30.9513825 0.979166667,30.9513825 C1.05456349,30.9513825 1.13095238,30.9334101 1.20138889,30.8984639 L5.91269841,28.5271121 L9.64484127,30.8754992 C9.76984127,30.9543779 9.92261905,30.9733487 10.0615079,30.9274194 C10.2003968,30.88149 10.3125,30.7756528 10.3680556,30.6388633 L11.9801587,26.594086 L13.4087302,30.6198925 C13.4593254,30.7626728 13.5714286,30.8745008 13.7132937,30.924424 C13.8551587,30.9743472 14.0119048,30.9573733 14.1388889,30.8754992 L17.8710317,28.5271121 L22.5892857,30.8984639 C22.6597222,30.9334101 22.735119,30.9513825 22.8105159,30.9513825 L22.8303571,30.9513825 C23.1041667,30.9513825 23.3263889,30.7277266 23.3263889,30.4521505 C23.328373,30.3403226 23.2916667,30.2364823 23.2301587,30.1536098 Z M1.9890873,15.1037634 C2.06646825,15.3973118 1.99503968,15.8386329 1.9265873,16.2669739 C1.81746032,16.9419355 1.70535714,17.6398618 2.03869048,18.2209677 C2.37599206,18.8070661 3.03769841,19.071659 3.62103175,19.3043011 C3.99801587,19.4550691 4.38888889,19.611828 4.59722222,19.8215054 C4.80555556,20.0311828 4.96031746,20.4245776 5.11011905,20.8029954 C5.3422619,21.3910906 5.60515873,22.0570661 6.1875,22.3965438 C6.67261905,22.6791091 7.42361111,22.625192 8.12896825,22.5093702 C8.58333333,22.4364823 9.02281746,22.375576 9.28472222,22.446467 C9.55059524,22.5173579 9.86309524,22.7929339 10.1666667,23.0585253 C10.6488095,23.4808756 11.1954365,23.9601382 11.8928571,23.9601382 C12.5892857,23.9601382 13.1359127,23.4808756 13.6180556,23.0585253 C13.921627,22.7919355 14.235119,22.5173579 14.5009921,22.446467 C14.7628968,22.375576 15.202381,22.4344854 15.656746,22.5093702 C16.360119,22.6241935 17.1130952,22.6791091 17.5982143,22.3965438 C18.1815476,22.0570661 18.4444444,21.3910906 18.6755952,20.8029954 C18.8253968,20.4235791 18.9801587,20.0311828 19.1884921,19.8215054 C19.3968254,19.611828 19.7876984,19.4560676 20.1646825,19.3043011 C20.7480159,19.071659 21.4097222,18.8070661 21.7470238,18.2199693 C22.0803571,17.6398618 21.968254,16.9419355 21.859127,16.2669739 C21.7906746,15.8386329 21.719246,15.3973118 21.796627,15.1037634 C21.8680556,14.8361751 22.140873,14.521659 22.4047619,14.216129 C22.8253968,13.7308756 23.3015873,13.1797235 23.3015873,12.4788018 C23.3015873,11.7778802 22.8253968,11.2267281 22.4047619,10.7414747 C22.140873,10.4359447 21.8670635,10.1214286 21.796627,9.85384025 C21.719246,9.56029186 21.7906746,9.11897081 21.859127,8.6906298 C21.968254,8.0156682 22.0803571,7.31774194 21.7470238,6.73663594 C21.4097222,6.15053763 20.7480159,5.8859447 20.1646825,5.65330261 C19.7876984,5.50253456 19.3968254,5.34577573 19.1884921,5.13609831 C18.9801587,4.92642089 18.8253968,4.53302611 18.6755952,4.15460829 C18.4434524,3.56651306 18.1805556,2.90053763 17.5982143,2.56105991 C17.1130952,2.27849462 16.3611111,2.33241167 15.656746,2.44823349 C15.202381,2.52211982 14.7628968,2.58202765 14.5009921,2.51113671 C14.235119,2.44024578 13.922619,2.16466974 13.6190476,1.89907834 C13.1369048,1.47672811 12.5902778,0.997465438 11.8928571,0.997465438 C11.1964286,0.997465438 10.6498016,1.47672811 10.1676587,1.89907834 C9.8640873,2.1656682 9.55059524,2.44024578 9.28472222,2.51113671 C9.02480159,2.58302611 8.5843254,2.52311828 8.12896825,2.44823349 C7.42460317,2.33141321 6.67261905,2.27749616 6.1875,2.56105991 C5.60416667,2.90053763 5.34126984,3.56651306 5.11011905,4.15460829 C4.96031746,4.53402458 4.80555556,4.92642089 4.59722222,5.13609831 C4.38888889,5.34577573 3.99801587,5.5015361 3.62103175,5.65330261 C3.03769841,5.8859447 2.37599206,6.15053763 2.03869048,6.73763441 C1.70535714,7.31774194 1.81746032,8.0156682 1.9265873,8.6906298 C1.99503968,9.11897081 2.06646825,9.56029186 1.9890873,9.85384025 C1.91765873,10.1214286 1.64484127,10.4359447 1.38095238,10.7414747 C0.96031746,11.2267281 0.484126984,11.7778802 0.484126984,12.4788018 C0.484126984,13.1797235 0.96031746,13.7308756 1.38095238,14.216129 C1.64484127,14.521659 1.91765873,14.8361751 1.9890873,15.1037634 Z M11.1468254,10.3151306 L9.39285714,11.4054531 L9.39285714,9.1858679 L11.5079365,7.69316436 L13.7906746,7.69316436 L13.7906746,16.9738863 L11.1468254,16.9738863 L11.1468254,10.3151306 Z" transform="translate(13.095 8.333)"/>
  </g>
</svg>
