<svg xmlns="http://www.w3.org/2000/svg" width="36" height="36" viewBox="0 0 36 36">
  <g fill="none" fill-rule="evenodd">
    <circle cx="18" cy="18" r="18" fill="#E6E8E9"/>
    <path fill="#83838F" fill-rule="nonzero" d="M16.7257143,21.7105991 L14.5092857,15.8544885 C14.4592857,15.7214931 14.3364286,15.6309124 14.1964286,15.6237235 C14.0485714,15.6093456 13.9235714,15.6920184 13.8585714,15.817106 C13.6342857,16.2527558 13.37,16.5489401 13.0271429,16.7480737 C12.515,17.0464147 11.7671429,17.0162212 11.155,16.915576 C11.0214286,16.8940092 10.875,16.8702857 10.7685714,16.861659 C10.6771429,16.85447 10.59,16.8803502 10.5192857,16.936424 C10.445,16.9939355 10.3457143,17.0809217 10.2735714,17.1449032 C9.92571429,17.4504332 9.39857143,17.9112442 8.68714286,17.9608479 C8.66071429,17.9630046 8.63785714,17.9766636 8.61285714,17.9838525 C8.59571429,17.980977 8.58,17.9716313 8.56214286,17.9716313 C7.79214286,17.9716313 7.24785714,17.4942857 6.85071429,17.1456221 C6.77428571,17.078765 6.66857143,16.9860276 6.59357143,16.9277972 C6.51071429,16.8623779 6.40285714,16.8386544 6.30142857,16.8595023 C6.24,16.8724424 6.115,16.8925714 5.95928571,16.9177327 C5.70785714,16.9594286 5.42357143,17.0054378 5.13071429,17.0054378 C4.73785714,17.0054378 4.39,16.9191705 4.09642857,16.7473548 C3.86071429,16.6114839 3.66,16.4216959 3.48071429,16.1686452 C3.40642857,16.0636866 3.28071429,16.0119263 3.155,16.0191152 C3.02785714,16.0320553 2.91714286,16.1118525 2.86428571,16.2297512 L0.379285714,21.7781751 C0.317142857,21.9162028 0.348571429,22.0793917 0.457857143,22.1843502 C0.525714286,22.2504885 0.615,22.2849954 0.705,22.2849954 C0.759285714,22.2849954 0.814285714,22.2720553 0.865,22.246894 L4.25714286,20.5395207 L6.94428571,22.2303594 C7.03428571,22.2871521 7.14428571,22.3008111 7.24428571,22.2677419 C7.34428571,22.2346728 7.425,22.15847 7.465,22.0599816 L8.62571429,19.1477419 L9.65428571,22.0463226 C9.69071429,22.1491244 9.77142857,22.2296406 9.87357143,22.2655853 C9.97571429,22.30153 10.0885714,22.2893088 10.18,22.2303594 L12.8671429,20.5395207 L16.2642857,22.246894 C16.315,22.2720553 16.3692857,22.2849954 16.4235714,22.2849954 L16.4378571,22.2849954 C16.635,22.2849954 16.795,22.1239631 16.795,21.9255484 C16.7964286,21.8450323 16.77,21.7702673 16.7257143,21.7105991 Z M1.43214286,10.8747097 C1.38071429,10.6820461 1.18428571,10.4555945 0.994285714,10.2356129 C0.691428571,9.88623041 0.348571429,9.48940092 0.348571429,8.98473733 C0.348571429,8.48007373 0.691428571,8.08324424 0.994285714,7.73386175 C1.18428571,7.51388018 1.38071429,7.28742857 1.43214286,7.09476498 C1.48785714,6.88341014 1.43642857,6.56565899 1.38714286,6.25725346 C1.30857143,5.77128111 1.22785714,5.26877419 1.46785714,4.85109677 C1.71071429,4.4283871 2.18714286,4.23788018 2.60714286,4.07037788 C2.87857143,3.96110599 3.16,3.84895853 3.31,3.69799078 C3.46,3.54702304 3.57142857,3.2644977 3.67928571,2.99131797 C3.84571429,2.5678894 4.035,2.0883871 4.455,1.84396313 C4.80428571,1.63979724 5.34571429,1.67861751 5.85285714,1.76272811 C6.18071429,1.81664516 6.49785714,1.8597788 6.685,1.80801843 C6.87642857,1.75697696 7.10214286,1.55928111 7.32071429,1.36733641 C7.66785714,1.06324424 8.06142857,0.718175115 8.56285714,0.718175115 C9.065,0.718175115 9.45857143,1.06324424 9.80571429,1.36733641 C10.0242857,1.55856221 10.2492857,1.75697696 10.4407143,1.80801843 C10.6292857,1.85905991 10.9457143,1.81592627 11.2728571,1.76272811 C11.78,1.67933641 12.3214286,1.64051613 12.6707143,1.84396313 C13.09,2.0883871 13.2792857,2.5678894 13.4464286,2.99131797 C13.5542857,3.2637788 13.6657143,3.54702304 13.8157143,3.69799078 C13.9657143,3.84895853 14.2471429,3.96182488 14.5185714,4.07037788 C14.9385714,4.23788018 15.415,4.4283871 15.6578571,4.85037788 C15.8978571,5.26877419 15.8171429,5.77128111 15.7385714,6.25725346 C15.6892857,6.56565899 15.6378571,6.88341014 15.6935714,7.09476498 C15.7442857,7.28742857 15.9414286,7.51388018 16.1314286,7.73386175 C16.4342857,8.08324424 16.7771429,8.48007373 16.7771429,8.98473733 C16.7771429,9.48940092 16.4342857,9.88623041 16.1314286,10.2356129 C15.9414286,10.4555945 15.745,10.6820461 15.6935714,10.8747097 C15.6378571,11.0860645 15.6892857,11.4038157 15.7385714,11.7122212 C15.8171429,12.1981935 15.8978571,12.7007005 15.6578571,13.1183779 C15.415,13.5410876 14.9385714,13.7315945 14.5185714,13.8990968 C14.2471429,14.0083687 13.9657143,14.1205161 13.8157143,14.2714839 C13.6657143,14.4224516 13.5542857,14.704977 13.4464286,14.9781567 C13.28,15.4015853 13.0907143,15.8810876 12.6707143,16.1255115 C12.3214286,16.3289585 11.7792857,16.2894194 11.2728571,16.2067465 C10.9457143,16.1528295 10.6292857,16.1104147 10.4407143,16.1614562 C10.2492857,16.2124977 10.0235714,16.4101935 9.805,16.6021382 C9.45785714,16.9062304 9.06428571,17.2512995 8.56285714,17.2512995 C8.06071429,17.2512995 7.66714286,16.9062304 7.32,16.6021382 C7.10142857,16.4109124 6.87642857,16.2124977 6.685,16.1614562 C6.49642857,16.1104147 6.18,16.1542673 5.85285714,16.2067465 C5.345,16.2901382 4.80428571,16.3289585 4.455,16.1255115 C4.03571429,15.8810876 3.84642857,15.4015853 3.67928571,14.9781567 C3.57142857,14.7056959 3.46,14.4224516 3.31,14.2714839 C3.16,14.1205161 2.87857143,14.0076498 2.60714286,13.8990968 C2.18714286,13.7315945 1.71071429,13.5410876 1.46785714,13.1190968 C1.22785714,12.7007005 1.30857143,12.1981935 1.38714286,11.7122212 C1.43642857,11.4038157 1.48785714,11.0860645 1.43214286,10.8747097 Z M5.82571429,11.9501751 L5.82571429,12.2211982 L11.165,12.2211982 L11.165,10.791318 L8.93642857,10.791318 L9.865,9.88479263 C10.2364286,9.52031336 10.5521429,9.17452535 10.775,8.79135484 C10.9885714,8.41752995 11.1185714,8.0156682 11.1185714,7.55773272 C11.1185714,6.95026728 10.8957143,6.41756682 10.4871429,6.04374194 C10.0692857,5.66991705 9.44714286,5.44562212 8.63,5.44562212 C7.02357143,5.44562212 6.02071429,6.29607373 5.95571429,7.96894009 L7.68285714,7.96894009 C7.76642857,7.17456221 8.06357143,6.88484793 8.53714286,6.88484793 C9.01071429,6.88484793 9.24285714,7.18390783 9.24285714,7.6324977 C9.24285714,8.19323502 8.81571429,8.76331797 8.14714286,9.47358525 L5.82571429,11.9501751 Z" transform="translate(9.429 6)"/>
  </g>
</svg>
